<svg width="25" height="25" viewBox="0 0 25 25" fill="none" xmlns="http://www.w3.org/2000/svg">
<path d="M3.66675 12.5C3.66675 7.52943 7.69618 3.5 12.6667 3.5C17.6373 3.5 21.6667 7.52943 21.6667 12.5V18.9286C21.6667 19.2271 21.6667 19.3764 21.6527 19.502C21.5351 20.5451 20.7118 21.3684 19.6687 21.4859C19.5431 21.5 19.3938 21.5 19.0953 21.5H12.6667C7.69618 21.5 3.66675 17.4706 3.66675 12.5Z" stroke="#FF4100"/>
<path d="M10.0417 15.0625C10.1798 15.0625 10.2917 15.1744 10.2917 15.3125C10.2917 15.4506 10.1798 15.5625 10.0417 15.5625C9.90368 15.5625 9.79175 15.4506 9.79175 15.3125C9.79175 15.1744 9.90368 15.0625 10.0417 15.0625Z" fill="black" stroke="#FF4100"/>
<path d="M13.0805 9.99279C13.2181 9.71432 13.6153 9.71432 13.7529 9.99279L13.939 10.3694C14.2548 11.0086 14.7123 11.5673 15.2766 12.003L15.6573 12.2969C15.8517 12.447 15.8517 12.7404 15.6573 12.8905L15.2766 13.1844C14.7123 13.6201 14.2548 14.1788 13.939 14.818L13.7529 15.1946C13.6153 15.4731 13.2181 15.4731 13.0805 15.1946L12.8944 14.818C12.5785 14.1788 12.121 13.6201 11.5567 13.1844L11.1761 12.8905C10.9817 12.7404 10.9817 12.447 11.1761 12.2969L11.5567 12.003C12.121 11.5673 12.5785 11.0086 12.8944 10.3694L13.0805 9.99279Z" stroke="#FF4100" stroke-linejoin="round"/>
</svg>
