<svg width="25" height="24" viewBox="0 0 25 24" fill="none" xmlns="http://www.w3.org/2000/svg">
<path d="M10.3887 16.0479C11.8015 15.934 13.2209 15.934 14.6338 16.0479L14.6445 16.0488C15.4063 16.0932 16.1653 16.1884 16.915 16.334V16.333C18.4557 16.6455 19.327 17.1172 19.7217 17.7305L19.7939 17.8555C20.0684 18.4042 20.0684 19.0567 19.7939 19.6055C19.4368 20.2857 18.5877 20.831 16.9062 21.125L16.8936 21.127C16.1457 21.2778 15.3888 21.3763 14.6279 21.4209L14.6152 21.4219L14.6016 21.4229C13.9068 21.4994 13.2075 21.5 12.4678 21.5H11.168C10.893 21.4662 10.6241 21.4472 10.3613 21.4463C9.60285 21.4071 8.84791 21.3131 8.10254 21.1631L8.09863 21.1621L7.7998 21.1006C6.44953 20.8026 5.66282 20.3423 5.29297 19.7666L5.21973 19.6416C5.07692 19.3686 5.00126 19.0626 5 18.751V18.748L5.01172 18.5146C5.03778 18.2832 5.10634 18.0586 5.21289 17.8525V17.8516C5.55998 17.1784 6.44392 16.6397 8.09473 16.335L8.10059 16.334C8.852 16.1865 9.61217 16.0911 10.376 16.0488L10.3887 16.0479ZM12.5029 2.5C15.1138 2.50017 17.2539 4.68082 17.2539 7.40039C17.2539 10.1199 15.1138 12.3006 12.5029 12.3008C9.89196 12.3008 7.75099 10.12 7.75098 7.40039C7.75098 4.68072 9.89195 2.5 12.5029 2.5Z" stroke="#FF4100"/>
</svg>
